<svg id="Logo" xmlns="http://www.w3.org/2000/svg" xmlns:xlink="http://www.w3.org/1999/xlink" width="90.273" height="25.899" viewBox="0 0 90.273 25.899">
  <defs>
    <clipPath id="clip-path">
      <rect id="Rectangle_1" data-name="Rectangle 1" width="90.273" height="25.899" fill="#8522fa"/>
    </clipPath>
  </defs>
  <g id="Group_7707" data-name="Group 7707" transform="translate(0 0)" clip-path="url(#clip-path)">
    <path id="Path_1" data-name="Path 1" d="M242.392,52.068c.592.58,1.387.99,1.6,1.886a2.348,2.348,0,0,1-3.651.974,2.327,2.327,0,0,0-3.167.35,3.019,3.019,0,0,0-.346,3.516,2.49,2.49,0,0,0,3.093.32c1.515-.851,2.036-.736,3.256.724-.824,2.572-4.284,3.428-8.283,2.05a5,5,0,0,1-2.139-5.838,5.994,5.994,0,0,1,5.131-4.514,7.762,7.762,0,0,1,4.506.533" transform="translate(-167.094 -36.943)" fill="#8522fa"/>
    <path id="Path_2" data-name="Path 2" d="M27.17,37.5l-1.256.095c-.913.671-1.041,1.7-1.355,2.953,2.1.662,4.249.046,6.676.456-2.131,1.47-3.6,3.4-6.255,3.156a1.748,1.748,0,0,0-2.155,1.491c-.518,2.646-2.886,3.42-4.675,4.876-.326-.613-.026-.992.094-1.363,1.445-4.439,2.915-8.871,4.379-13.3.2-.615.313-1.3,1.118-1.45a5.712,5.712,0,0,1,1.947-.112c.74-.02,1.624-.152,1.927.746A2.076,2.076,0,0,1,27.17,37.5" transform="translate(-12.937 -24.626)" fill="#8522fa"/>
    <path id="Path_3" data-name="Path 3" d="M99.107,51.59a4.36,4.36,0,0,1,3.445,1.014c1.162-1.322,2.544-1.048,3.8-.8a1.009,1.009,0,0,1,.327.952q-.839,4.257-1.689,8.513c-.229,1.153-1.079,1.269-2.03,1.227a2.8,2.8,0,0,1-1.615-.3,29.738,29.738,0,0,1,.651-4.6c.317-2.123-.144-2.8-2.255-3.133a.4.4,0,0,1-.6-.325,4.634,4.634,0,0,1-.028-2.542" transform="translate(-71.089 -37.022)" fill="#8522fa"/>
    <path id="Path_4" data-name="Path 4" d="M85.543,51.773c.964.79.31,1.936.63,2.867a3.222,3.222,0,0,0-1.7,1.154,2.915,2.915,0,0,0-.247,3.061c.7,1.2,1.9.91,3.269.723-.735,1.291-.746,2.9-2.372,3.187A3.949,3.949,0,0,1,81,60.934a5.658,5.658,0,0,1-.257-5.872,5.2,5.2,0,0,1,4.8-3.289" transform="translate(-57.525 -37.205)" fill="#8522fa"/>
    <path id="Path_5" data-name="Path 5" d="M150.9,62.061a18.526,18.526,0,0,1,.688-4.446c.524-2.884.017-3.414-2.874-2.716.216-.506.407-.97.611-1.429.875-1.968,1.56-2.348,3.577-1.992a3.175,3.175,0,0,1,2.834,3.291,28.543,28.543,0,0,1-1.189,6.737c-.248,1.019-1.615,1.189-3.648.555" transform="translate(-106.869 -36.907)" fill="#8522fa"/>
    <path id="Path_6" data-name="Path 6" d="M41.824,37.362c-.08-.916.2-1.868-.272-2.785-1.011-.529-2.112-.169-3.158-.305.324-.27.715-.18,1.08-.18q18.42-.011,36.84,0a6.515,6.515,0,0,1,.954.139c-.335.77-1.055.674-1.683.706a62.32,62.32,0,0,0-6.394.193,40.924,40.924,0,0,0-8.33.007,36.705,36.705,0,0,0-5.427-.17c-1.461-.036-2.941.15-3.719-.238.663.165.9.926.236,2.63l-10.126.008" transform="translate(-27.591 -24.489)" fill="#8522fa"/>
    <path id="Path_7" data-name="Path 7" d="M281.4,33.942c.833-.017,1.665-.047,2.5-.05,2.065-.006,2.559.766,1.655,2.64-.149.309-.5.521-.76.777l-12.094-.081a5.021,5.021,0,0,1-.207-3.137c3.063-.2,5.992.063,8.908-.151" transform="translate(-195.708 -24.356)" fill="#8522fa"/>
    <path id="Path_8" data-name="Path 8" d="M280.9,63.544c-2.849.194-4.94-.875-5.775-2.954a5.98,5.98,0,0,1,1.789-6.583c.207-.183.413-.367.62-.551l1.129-.588c.785-.01.94.454.821,1.108-.19,1.053-.331,2.12-.6,3.154-.647,2.508.044,3.446,2.566,3.378.221,1.086.6,2.2-.553,3.037" transform="translate(-197.445 -37.992)" fill="#8522fa"/>
    <path id="Path_9" data-name="Path 9" d="M134.353,51.963a85.884,85.884,0,0,1-1.618,9.378c-.3,1.319-1.7,1.642-3.635.914a1.144,1.144,0,0,1-.116-1.067c.477-2.341.925-4.687,1.405-7.027.53-2.58,1.224-2.965,3.964-2.2" transform="translate(-92.637 -37.089)" fill="#8522fa"/>
    <path id="Path_10" data-name="Path 10" d="M212.839,64.891l-2.4-.023a1.2,1.2,0,0,1-.451-1.228c.483-2.289.885-4.6,1.382-6.881.3-1.4,1.741-2.078,3.854-1.931.3.262.2.586.133.907-.51,2.522-1.045,5.04-1.508,7.57a2.235,2.235,0,0,1-1.011,1.586" transform="translate(-150.88 -39.386)" fill="#8522fa"/>
    <path id="Path_11" data-name="Path 11" d="M258.613,33.805c-2.22.47-4.467.089-6.7.224-.585.035-1.213-.175-1.833.3a2.979,2.979,0,0,1-.171,2.765h-8.895c-.922-1.992-.122-3.326,1.9-3.336q5.044-.025,10.088-.054l5.612.1" transform="translate(-172.926 -24.219)" fill="#8522fa"/>
    <path id="Path_12" data-name="Path 12" d="M82.658,37.984c-.434-.718-.138-1.573-.57-2.689-.034-.1-.612.065-.963-.34H91.417c.649.283,1.378-.077,2.109.29.75.917.227,1.826-.176,2.74H82.658" transform="translate(-58.298 -25.119)" fill="#8522fa"/>
    <path id="Path_13" data-name="Path 13" d="M185.769,66c.16,1.19-.708,2.326-.284,3.456.54.618,1.25.183,1.772.482.923,1.658.575,2.5-1.16,2.762-1.543.232-3.043.13-4.058-1.246s-.562-2.888-.093-4.3c.374-1.129,1.871-1.51,3.824-1.154" transform="translate(-130.379 -47.339)" fill="#8522fa"/>
    <path id="Path_14" data-name="Path 14" d="M186.353,49.158h-6.381c0-1.216-.286-2.389,1.064-3.05a1.324,1.324,0,0,0,.641-.7c.9-1.992,1.566-2.275,3.681-1.562.5.579-.09,1.289.351,2.108.131.268.745.08,1.182.52a2.959,2.959,0,0,1-.537,2.685" transform="translate(-129.314 -31.253)" fill="#8522fa"/>
    <path id="Path_15" data-name="Path 15" d="M119.632,37.972c-.537-.778.015-1.626-.113-2.394-.5-.627-1.311-.189-1.82-.635l8.434,0a1.482,1.482,0,0,0,.666.115c.657.036,1.494-.229,1.754.658a1.914,1.914,0,0,1-.476,2.259h-8.445" transform="translate(-84.581 -25.107)" fill="#8522fa"/>
    <path id="Path_16" data-name="Path 16" d="M8.12,34.479a18.7,18.7,0,0,1-1.563,4.6C4.135,37.713,2.177,35.988,0,34.545c.759-.636,6.587-.716,8.12-.066" transform="translate(0 -24.454)" fill="#8522fa"/>
    <path id="Path_17" data-name="Path 17" d="M60.956,70.673l-6.464-4.581a11.077,11.077,0,0,1,4.177-3.307L61.281,70.4l-.326.272" transform="translate(-39.159 -45.119)" fill="#8522fa"/>
    <path id="Path_18" data-name="Path 18" d="M44.03,7.765a21.891,21.891,0,0,1-5.286.032A40.208,40.208,0,0,1,41.579,0L44.03,7.765" transform="translate(-27.842 0)" fill="#8522fa"/>
    <path id="Path_19" data-name="Path 19" d="M149.618,37.734a8.019,8.019,0,0,0-.191-2.565l-1.754-.468,8.125-.093c1.117.649.25,1.486.144,2.2s-.732,1-1.469.983c-1.618-.031-3.237-.039-4.855-.057" transform="translate(-106.121 -24.87)" fill="#8522fa"/>
    <path id="Path_20" data-name="Path 20" d="M219.944,37.558a1.985,1.985,0,0,1-2.21-1.855,2.206,2.206,0,0,1,2.44-2.149c1.319,0,2.206.734,2.212,1.834a2.248,2.248,0,0,1-2.442,2.169" transform="translate(-156.467 -24.113)" fill="#8522fa"/>
    <path id="Path_21" data-name="Path 21" d="M294.823,62.66c.176-1.988.176-1.988-.436-2.655l.989-.382c.38-.336.886-.5,1.194-.946a3.076,3.076,0,0,0,.394-2.94c-.474-1.219-1.653-1.166-2.833-1.122a14.4,14.4,0,0,1,1.09-2.947A5.184,5.184,0,0,1,300,53.489a5.1,5.1,0,0,1,.58,5.31,6.043,6.043,0,0,1-5.761,3.861" transform="translate(-211.368 -37.108)" fill="#8522fa"/>
  </g>
</svg>
